<?xml version="1.0" encoding="iso-8859-1"?>
<!DOCTYPE svg PUBLIC "-//W3C//DTD SVG 1.1//EN" "http://www.w3.org/Graphics/SVG/1.1/DTD/svg11.dtd">
<svg 
 version="1.1" xmlns="http://www.w3.org/2000/svg" xmlns:xlink="http://www.w3.org/1999/xlink" x="0px" y="0px" width="512px"
	 height="512px" viewBox="0 0 512 512" style="enable-background:new 0 0 512 512;" xml:space="preserve"
><g id="afcae5a789ccd549f9c6e2a2f810bc1c"><g></g><g fill="#000000"><path style="display: inline;" d="M62.318,53.202L22.744,94.045L45.06,234.462L330.949,511.5l158.307-163.37L203.366,71.091
		L62.318,53.202z M165.056,192.352c-14.575,15.042-38.573,15.421-53.614,0.842c-15.038-14.57-15.418-38.572-0.843-53.614
		c14.575-15.034,38.576-15.406,53.61-0.835C179.25,153.316,179.631,177.318,165.056,192.352z M26.559,65.355l-3.814-24.013
		L62.318,0.5l141.048,17.889l285.89,277.038l-17.854,18.429L199.479,50.352L58.431,32.462L26.559,65.355z"></path></g></g></svg>